<?xml version="1.0" encoding="UTF-8"?>
<svg id="katman_1" xmlns="http://www.w3.org/2000/svg" version="1.1" viewBox="0 0 393.85 71.75">
  <!-- Generator: Adobe Illustrator 29.8.2, SVG Export Plug-In . SVG Version: 2.1.1 Build 3)  -->
  <defs>
    <style>
      .st0, .st1 {
        fill: #e31524;
      }

      .st1, .st2 {
        fill-rule: evenodd;
      }

      .st3 {
        fill: #8e9093;
      }

      .st2 {
        fill: #3a3a43;
      }
    </style>
  </defs>
  <g>
    <path class="st3" d="M165.08,9.39l-.02-.02c-2.02-2.43-5.69-5.43-10.92-8.92L153.47,0l-25.11,5.31,4.7,2.46c6.29,3.3,10.48,5.87,12.43,7.64,2.38,2.21,3.5,4.73,3.44,7.7-.07,4.08-1.32,8.59-3.8,13.79-.78,1.64-2.83,5.73-6.51,11.8l2.67-34.28H56.17l-8.39,22.42-2.14-22.42H15.54L0,71.75h23.94l6.69-29.23,2.99,29.23h18.02l11.34-23.87-6.47,23.87h80.34l1.24-15.99h15.13l.56-.91c4.49-7.33,7.75-13.15,9.7-17.3,3.38-7.11,5.07-12.79,5.15-17.34.1-4.14-1.08-7.78-3.53-10.81M120.71,33.79h-14.9l1.85-6.72,14.87.05-1.83,6.67h.01ZM99.51,57.41l2.57-9.6h14.79l-2.63,9.6s-14.73,0-14.73,0Z"/>
    <polygon class="st2" points="136.05 70.73 140.22 17.22 128.45 17.22 113.81 70.73 136.05 70.73"/>
    <path class="st2" d="M101.6,46.8h16.57l2.69-10.21h-16.57l2.9-10.54,16.43.05,2.48-8.88H58.48l-10.82,28.93-2.76-28.93h-26.91L3.48,70.73h19.92l8.92-39.02,4,39.02h15.09l19.96-42.01-11.39,42.01h51.59l2.89-10.52h-16.45s3.59-13.41,3.59-13.41ZM80.27,68.33h-1.02l10.25-48.71h3.75s-12.98,48.71-12.98,48.71Z"/>
    <path class="st2" d="M164.58,11.48c-1.88-2.26-5.37-5.12-10.51-8.55l-19.14,4.05c6.44,3.38,10.74,6.02,12.85,7.94,2.78,2.59,4.12,5.62,4.05,9.13-.08,4.37-1.42,9.2-3.99,14.57-1.61,3.39-4.66,9.03-9.18,16.13h14.46c4.49-7.33,7.69-13.04,9.61-17.12,3.22-6.77,4.89-12.27,4.97-16.57.1-3.7-.94-6.88-3.11-9.57"/>
    <polygon class="st1" points="135.06 69.84 139.23 16.33 127.46 16.33 112.82 69.84 135.06 69.84"/>
    <path class="st1" d="M100.61,45.91h16.58l2.69-10.21h-16.57l2.9-10.54,16.43.05,2.48-8.88H57.49l-10.82,28.93-2.76-28.93h-26.91L2.49,69.84h19.92l8.93-39.02,4,39.02h15.09l19.96-42.01-11.4,42.01h51.59l2.89-10.52h-16.45s3.59-13.41,3.59-13.41ZM79.28,67.44h-1.02l10.25-48.71h3.75l-12.98,48.71Z"/>
    <path class="st1" d="M163.6,10.59c-1.88-2.26-5.37-5.12-10.51-8.55l-19.14,4.05c6.44,3.38,10.74,6.02,12.85,7.94,2.78,2.59,4.12,5.62,4.05,9.13-.08,4.37-1.42,9.2-3.99,14.57-1.61,3.39-4.66,9.03-9.19,16.13h14.46c4.49-7.33,7.69-13.04,9.61-17.12,3.22-6.77,4.89-12.27,4.97-16.57.1-3.7-.94-6.88-3.11-9.57"/>
  </g>
  <g>
    <path class="st0" d="M211.26,47.64l-.99-2.21h-4.86l-.99,2.21h-1.74l4.64-10.42h1.05l4.64,10.42h-1.76.01ZM207.85,39.97l-1.74,3.89h3.46l-1.73-3.89h0Z"/>
    <polygon class="st0" points="223.71 47.64 223.71 40.14 220.18 44.31 216.66 40.15 216.66 47.64 215.12 47.64 215.12 37.23 216.27 37.23 220.21 41.89 224.16 37.23 225.3 37.23 225.3 47.64 223.71 47.64"/>
    <path class="st0" d="M229.18,47.64v-10.41h3.65c1,0,1.8.19,2.42.56.73.44,1.1,1.08,1.1,1.91,0,.36-.11.71-.33,1.05-.21.34-.52.61-.9.8.45.1.85.29,1.21.56s.65.6.88,1c.22.4.33.84.33,1.32,0,.89-.29,1.6-.84,2.13-.65.61-1.6.95-2.84,1.04-.54.03-1.05.05-1.51.05h-3.17ZM234.02,40.7c.47-.21.7-.54.7-1,0-.6-.63-.9-1.9-.9h-2.02v2.19h1.53c.68,0,1.24-.1,1.68-.29h.01ZM233.81,46.01c1.4-.12,2.1-.65,2.1-1.59,0-1.1-.83-1.71-2.5-1.82-.4-.03-.77-.04-1.08-.04h-1.53v3.52h1.53c.5,0,.98-.02,1.47-.07h0Z"/>
    <path class="st0" d="M247.43,47.64l-.99-2.21h-4.86l-.99,2.21h-1.74l4.64-10.42h1.05l4.64,10.42h-1.76.01ZM244.02,39.97l-1.73,3.89h3.46l-1.73-3.89h0Z"/>
    <polygon class="st0" points="251.29 47.64 251.29 37.23 252.91 37.23 252.91 46.07 257.96 46.07 257.96 47.64 251.29 47.64"/>
    <path class="st0" d="M268.56,47.64l-.99-2.21h-4.86l-.99,2.21h-1.74l4.64-10.42h1.05l4.64,10.42h-1.76,0ZM265.14,39.97l-1.74,3.89h3.46l-1.73-3.89h.01Z"/>
    <path class="st0" d="M273.29,47.54c-.38-.15-.79-.38-1.21-.69l.84-1.32c.29.22.56.39.81.5.24.11.56.17.96.17.53,0,.94-.11,1.24-.34.29-.23.5-.54.61-.92.12-.38.18-.82.18-1.3v-4.84h-3.62v-1.57h5.25v6.41c0,.81-.13,1.52-.4,2.14-.26.62-.66,1.11-1.2,1.46-.54.36-1.23.53-2.06.53-.54,0-1-.08-1.39-.23"/>
    <path class="st0" d="M286.6,47.64v-10.41h3.02c1.32,0,2.44.31,3.36.92.49.32.91.75,1.26,1.28.55.86.83,1.86.83,3.01s-.24,2.04-.71,2.82-1.12,1.37-1.95,1.77c-.82.41-1.75.61-2.79.61h-3.02,0ZM291.63,45.67c.57-.26,1.02-.67,1.34-1.21.32-.53.48-1.21.48-2.02,0-.85-.2-1.57-.58-2.18-.66-.98-1.73-1.47-3.24-1.47h-1.41v7.28h1.41c.77,0,1.44-.14,2.01-.41h-.01Z"/>
    <polygon class="st0" points="296.86 47.64 296.86 46.07 298.55 46.07 298.55 38.79 296.86 38.79 296.86 37.23 301.86 37.23 301.86 38.79 300.17 38.79 300.17 46.07 301.86 46.07 301.86 47.64 296.86 47.64"/>
    <path class="st0" d="M306.04,47.51c-.65-.18-1.29-.43-1.93-.75l.68-1.41c.54.27,1.07.48,1.6.63s1.09.22,1.7.22c.57,0,1.08-.09,1.52-.25.6-.22.9-.58.9-1.09,0-.35-.18-.63-.55-.85-.37-.22-.89-.43-1.57-.63-1.05-.31-1.77-.56-2.17-.72-1.35-.58-2.03-1.46-2.03-2.64,0-1.01.43-1.77,1.3-2.27.73-.42,1.61-.63,2.64-.63.7,0,1.36.08,1.99.24.62.16,1.25.4,1.87.69l-.64,1.43c-.52-.25-1.04-.45-1.55-.58-.52-.14-1.07-.21-1.66-.21-.64,0-1.18.1-1.61.3-.47.21-.7.55-.7,1.03,0,.35.18.62.55.85.37.22.89.43,1.57.64,1.05.31,1.77.56,2.17.73,1.35.59,2.03,1.46,2.03,2.64,0,1.01-.45,1.77-1.36,2.28-.68.39-1.48.59-2.4.63l-.47.72c.47.42.7.87.7,1.33,0,.31-.11.56-.33.75s-.51.29-.86.29-.74-.19-1.16-.56l.5-.64c.31.22.53.33.66.33.09,0,.15,0,.19-.05.03-.03.05-.06.05-.1,0-.27-.31-.67-.91-1.19l.65-.89c-.47-.04-.92-.11-1.34-.23"/>
    <polygon class="st0" points="322.17 47.64 322.17 38.79 319.12 38.79 319.12 37.23 326.84 37.23 326.84 38.79 323.79 38.79 323.79 47.64 322.17 47.64"/>
    <path class="st0" d="M329.65,47.64v-1.57h1.69v-7.28h-1.69v-1.57h5v1.57h-1.69v7.28h1.69v1.57h-5ZM332.82,34.73c.19.18.28.41.28.68s-.09.49-.28.68c-.18.19-.4.29-.66.29s-.48-.09-.66-.29c-.19-.19-.28-.41-.28-.68s.09-.49.28-.68c.18-.19.4-.29.66-.29s.48.09.66.29Z"/>
    <path class="st0" d="M339.08,47.36c-.66-.3-1.2-.73-1.62-1.3-.73-.96-1.1-2.17-1.1-3.62,0-.75.1-1.45.31-2.1.21-.65.52-1.21.92-1.7.86-1.03,2.04-1.54,3.53-1.54.79,0,1.49.13,2.08.38.59.26,1.17.66,1.73,1.22l-1.06,1.13c-.41-.41-.82-.71-1.23-.89-.41-.19-.91-.27-1.51-.27-1.04,0-1.83.37-2.38,1.12-.5.68-.75,1.56-.75,2.64s.25,1.96.75,2.64c.55.74,1.34,1.12,2.38,1.12.6,0,1.1-.09,1.51-.28.41-.18.82-.48,1.23-.89l1.06,1.13c-.56.55-1.13.96-1.73,1.22-.59.26-1.29.39-2.08.39s-1.45-.14-2.04-.41"/>
    <path class="st0" d="M348.74,46.13c.19.19.28.41.28.68s-.09.49-.28.68c-.18.19-.4.29-.66.29s-.48-.09-.66-.29c-.19-.18-.28-.41-.28-.68s.09-.49.28-.68c.18-.19.4-.29.66-.29s.48.09.66.29"/>
    <path class="st0" d="M364.21,47.64l-.99-2.21h-4.86l-.99,2.21h-1.74l4.64-10.42h1.05l4.64,10.42h-1.76,0ZM360.8,39.97l-1.74,3.89h3.46l-1.73-3.89h.01Z"/>
    <path class="st0" d="M369.5,46.13c.19.19.28.41.28.68s-.09.49-.28.68c-.18.19-.4.29-.66.29s-.48-.09-.66-.29c-.19-.18-.28-.41-.28-.68s.09-.49.28-.68c.18-.19.4-.29.66-.29s.48.09.66.29"/>
    <path class="st0" d="M374.18,47.51c-.65-.18-1.29-.43-1.93-.75l.68-1.41c.54.27,1.07.48,1.6.63s1.1.22,1.7.22,1.08-.09,1.52-.25c.6-.22.9-.58.9-1.09,0-.35-.18-.63-.55-.85-.37-.22-.89-.43-1.57-.63-1.05-.31-1.77-.56-2.17-.72-1.35-.58-2.03-1.46-2.03-2.64,0-1.01.43-1.77,1.3-2.27.73-.42,1.61-.63,2.64-.63.7,0,1.36.08,1.98.24.62.16,1.25.4,1.87.69l-.64,1.43c-.52-.25-1.04-.45-1.55-.58-.52-.14-1.07-.21-1.66-.21-.64,0-1.18.1-1.61.3-.47.21-.7.55-.7,1.03,0,.35.18.62.55.85.37.22.89.43,1.58.64,1.05.31,1.77.56,2.17.73,1.35.59,2.03,1.46,2.03,2.64,0,1.01-.45,1.77-1.36,2.28-.68.39-1.48.59-2.4.63l-.47.72c.47.42.7.87.7,1.33,0,.31-.11.56-.33.75s-.51.29-.86.29-.74-.19-1.16-.56l.5-.64c.31.22.53.33.66.33.09,0,.15,0,.19-.05.04-.03.05-.06.05-.1,0-.27-.31-.67-.91-1.19l.65-.89c-.47-.04-.92-.11-1.34-.23"/>
    <polygon class="st0" points="198.78 65.17 198.78 57.67 195.24 61.84 191.72 57.68 191.72 65.17 190.18 65.17 190.18 54.76 191.33 54.76 195.27 59.41 199.22 54.76 200.36 54.76 200.36 65.17 198.78 65.17"/>
    <polygon class="st0" points="203.29 65.17 203.29 63.6 204.98 63.6 204.98 56.32 203.29 56.32 203.29 54.76 208.29 54.76 208.29 56.32 206.6 56.32 206.6 63.6 208.29 63.6 208.29 65.17 203.29 65.17"/>
    <path class="st0" d="M211.06,65.17v-10.41h3.02c1.32,0,2.44.31,3.36.92.49.32.91.75,1.26,1.28.55.86.83,1.86.83,3.01s-.24,2.04-.71,2.82-1.12,1.37-1.94,1.77c-.82.41-1.75.61-2.79.61h-3.03ZM216.09,63.2c.57-.26,1.02-.67,1.34-1.21.32-.53.48-1.21.48-2.02s-.19-1.57-.58-2.17c-.66-.98-1.74-1.47-3.24-1.47h-1.41v7.28h1.41c.77,0,1.44-.14,2.01-.41h0Z"/>
    <path class="st0" d="M222.35,65.17v-10.41h3.03c1.32,0,2.44.31,3.36.92.49.32.9.75,1.26,1.28.55.86.83,1.86.83,3.01s-.24,2.04-.71,2.82-1.12,1.37-1.94,1.77c-.82.41-1.75.61-2.8.61h-3.03,0ZM227.39,63.2c.57-.26,1.02-.67,1.34-1.21.32-.53.48-1.21.48-2.02s-.19-1.57-.59-2.17c-.66-.98-1.73-1.47-3.24-1.47h-1.41v7.28h1.41c.77,0,1.44-.14,2.01-.41h0Z"/>
    <polygon class="st0" points="233.65 65.17 233.65 54.76 235.27 54.76 235.27 63.6 240.32 63.6 240.32 65.17 233.65 65.17"/>
    <polygon class="st0" points="242.81 65.17 242.81 54.76 249.48 54.76 249.48 56.32 244.43 56.32 244.43 59.84 248.99 59.84 248.99 61.41 244.43 61.41 244.43 63.6 249.48 63.6 249.48 65.17 242.81 65.17"/>
    <polygon class="st0" points="257.29 65.17 257.29 54.76 263.96 54.76 263.96 56.32 258.91 56.32 258.91 59.84 263.47 59.84 263.47 61.41 258.91 61.41 258.91 63.6 263.96 63.6 263.96 65.17 257.29 65.17"/>
    <path class="st0" d="M274.55,65.17l-.99-2.21h-4.86l-.99,2.21h-1.74l4.64-10.42h1.05l4.64,10.42h-1.76,0ZM271.14,57.5l-1.73,3.89h3.46l-1.73-3.89h0Z"/>
    <path class="st0" d="M279.99,65.03c-.65-.17-1.29-.42-1.93-.75l.68-1.41c.54.27,1.07.48,1.6.63.53.14,1.1.22,1.71.22.57,0,1.07-.09,1.52-.25.6-.22.9-.58.9-1.09,0-.35-.18-.63-.55-.86-.37-.22-.89-.43-1.57-.63-1.05-.31-1.76-.56-2.17-.73-1.35-.59-2.03-1.46-2.03-2.64,0-1.01.43-1.78,1.3-2.27.73-.43,1.61-.63,2.64-.63.7,0,1.36.08,1.98.24.63.16,1.25.4,1.87.69l-.64,1.43c-.52-.25-1.04-.44-1.56-.58-.52-.14-1.07-.21-1.65-.21-.64,0-1.18.1-1.61.3-.47.21-.7.55-.7,1.03,0,.34.19.63.55.85.37.22.89.43,1.57.64,1.05.31,1.77.56,2.17.73,1.35.58,2.03,1.46,2.03,2.64,0,1.01-.45,1.77-1.36,2.28-.75.42-1.64.63-2.68.63-.72,0-1.41-.09-2.05-.26"/>
    <polygon class="st0" points="291.23 65.17 291.23 56.32 288.17 56.32 288.17 54.76 295.9 54.76 295.9 56.32 292.84 56.32 292.84 65.17 291.23 65.17"/>
    <path class="st0" d="M302.57,65.17v-10.41h3.7c1.14,0,2.06.26,2.78.76.79.57,1.2,1.42,1.2,2.56s-.4,2-1.2,2.57c-.71.5-1.64.76-2.78.76h-2.08v3.76h-1.62ZM308.16,59.31c.3-.29.45-.7.45-1.23s-.15-.94-.45-1.23c-.4-.36-1.04-.53-1.9-.53h-2.08v3.52h2.08c.86,0,1.49-.18,1.9-.53Z"/>
    <path class="st0" d="M318.59,65.17l-.99-2.21h-4.86l-.99,2.21h-1.74l4.64-10.42h1.05l4.64,10.42h-1.76,0ZM315.17,57.5l-1.73,3.89h3.46l-1.73-3.89h0Z"/>
    <path class="st0" d="M324.13,64.88c-.65-.3-1.2-.73-1.62-1.3-.73-.96-1.09-2.17-1.09-3.62,0-.75.1-1.45.31-2.1.21-.65.52-1.21.92-1.7.86-1.03,2.04-1.55,3.53-1.55.79,0,1.49.13,2.08.39s1.17.66,1.73,1.22l-1.07,1.13c-.41-.41-.82-.7-1.23-.89-.41-.18-.91-.27-1.51-.27-1.04,0-1.83.37-2.38,1.12-.5.68-.75,1.56-.75,2.64s.25,1.96.75,2.64c.55.74,1.35,1.12,2.38,1.12.6,0,1.1-.09,1.51-.28.41-.18.82-.48,1.23-.89l1.07,1.13c-.56.56-1.13.96-1.73,1.22-.59.26-1.29.39-2.08.39s-1.45-.14-2.04-.41"/>
    <polygon class="st0" points="333.98 65.17 332.36 65.17 332.36 54.76 333.98 54.76 333.98 59.18 335.78 59.18 339.13 54.76 341.12 54.76 337.18 59.96 341.12 65.17 339.13 65.17 335.78 60.75 333.98 60.75 333.98 65.17"/>
    <path class="st0" d="M351.55,65.17l-.99-2.21h-4.86l-.99,2.21h-1.74l4.64-10.42h1.05l4.64,10.42h-1.76,0ZM348.13,57.5l-1.73,3.89h3.46l-1.73-3.89h0Z"/>
    <path class="st0" d="M357.09,64.88c-.59-.28-1.09-.65-1.49-1.14-.4-.48-.71-1.04-.92-1.69-.21-.65-.31-1.34-.31-2.09s.1-1.45.31-2.1c.21-.65.52-1.21.92-1.7.4-.48.9-.86,1.49-1.14.59-.27,1.27-.41,2.03-.41.8,0,1.5.13,2.09.39s1.17.66,1.73,1.22l-1.06,1.13c-.41-.41-.82-.71-1.23-.89s-.92-.27-1.52-.27c-1.03,0-1.82.37-2.37,1.12-.5.68-.75,1.57-.75,2.64s.25,1.96.75,2.64c.55.75,1.34,1.12,2.37,1.12.49,0,.91-.06,1.27-.18s.69-.31,1.01-.57v-1.56h-2.28v-1.58h3.82v3.85c-.56.56-1.13.96-1.73,1.22-.59.26-1.29.39-2.09.39s-1.44-.14-2.03-.41"/>
    <polygon class="st0" points="365.28 65.17 365.28 63.6 366.98 63.6 366.98 56.32 365.28 56.32 365.28 54.76 370.28 54.76 370.28 56.32 368.59 56.32 368.59 63.6 370.28 63.6 370.28 65.17 365.28 65.17"/>
    <polygon class="st0" points="381.33 65.17 374.59 57.6 374.59 65.17 373.06 65.17 373.06 54.76 374.19 54.76 380.94 62.33 380.94 54.76 382.47 54.76 382.47 65.17 381.33 65.17"/>
    <path class="st0" d="M387.99,64.88c-.59-.28-1.09-.65-1.49-1.14-.4-.48-.71-1.04-.92-1.69-.21-.65-.31-1.34-.31-2.09s.1-1.45.31-2.1c.21-.65.52-1.21.92-1.7.4-.48.9-.86,1.49-1.14.59-.27,1.27-.41,2.03-.41s1.5.13,2.09.39,1.17.66,1.73,1.22l-1.07,1.13c-.41-.41-.82-.71-1.23-.89s-.92-.27-1.52-.27c-1.03,0-1.83.37-2.38,1.12-.5.68-.75,1.57-.75,2.64s.25,1.96.75,2.64c.55.75,1.34,1.12,2.38,1.12.49,0,.91-.06,1.27-.18s.69-.31,1.01-.57v-1.56h-2.28v-1.58h3.82v3.85c-.56.56-1.14.96-1.73,1.22-.59.26-1.29.39-2.09.39s-1.44-.14-2.03-.41"/>
  </g>
  <rect class="st0" x="176.37" y="31.19" width="1.36" height="37.36"/>
</svg>